<?xml version="1.0" encoding="utf-8"?>
<!-- Generator: Adobe Illustrator 17.1.0, SVG Export Plug-In . SVG Version: 6.00 Build 0)  -->
<!DOCTYPE svg PUBLIC "-//W3C//DTD SVG 1.1//EN" "http://www.w3.org/Graphics/SVG/1.1/DTD/svg11.dtd">
<svg version="1.1" xmlns="http://www.w3.org/2000/svg" xmlns:xlink="http://www.w3.org/1999/xlink" x="0px" y="0px"
	 viewBox="0 0 595.3 841.9" enable-background="new 0 0 595.3 841.9" xml:space="preserve">
<g id="Layer_3" display="none">
</g>
<g id="Layer_2" display="none">
</g>
<g id="Layer_1" display="none">
	<text transform="matrix(1 0 0 1 50.5542 130.2962)" display="inline" font-family="'Biko'" font-size="44.0647">e</text>
	<g display="inline">
		<path d="M112.7,111.1h3.8v20.2h-3.8V129c-1.9,1.6-4.3,2.8-6.8,2.8c-2.8,0-5.5-1.1-7.5-3c-2-2-3.1-4.7-3.1-7.5s1.1-5.5,3.1-7.5
			c2-2,4.7-3,7.5-3c2.5,0,4.9,1.2,6.8,2.8V111.1z M112.7,121.2c0-3.7-3-6.8-6.8-6.8s-6.8,3.1-6.8,6.8s3,6.8,6.8,6.8
			S112.7,125,112.7,121.2z"/>
	</g>
	<rect x="41.5" y="95.5" display="inline" fill="none" stroke="#000000" stroke-miterlimit="10" width="86" height="40"/>
	<polygon display="inline" fill="#FFFFFF" points="70.4,111.2 74.8,102.5 83.6,120.7 106.2,78 115.1,78 85.7,134.4 81.5,134.5 	"/>
	<polygon display="inline" fill="#00AEEF" points="82.7,132.1 72.6,111.2 74.8,107 83.5,124.7 107.4,79 111.8,79 84.4,132 	"/>
	<path display="inline" fill="#00AEEF" d="M241.7,278h-75.3c-2.9,0-5.3-2.4-5.3-5.3v-29.3c0-2.9,2.4-5.3,5.3-5.3h75.3
		c2.9,0,5.3,2.4,5.3,5.3v29.3C247,275.6,244.6,278,241.7,278z"/>
	
		<text transform="matrix(1 0 0 1 171.0001 268.4045)" display="inline" fill="#FFFFFF" font-family="'Quicksand-Bold'" font-size="38.063">e  a</text>
	<path display="inline" fill="#BAF4FF" d="M222.1,227.3c0.4,0.4,0.6,0.9,0.6,1.5c0,0.3-0.1,0.7-0.3,1.1L205.7,267
		c-0.2,0.4-0.4,0.8-0.8,1c-0.3,0.3-0.7,0.4-1.2,0.4l-0.3,0c-0.4,0-0.8-0.1-1.2-0.4c-0.4-0.3-0.7-0.6-0.9-1.1l-7.1-15.7
		c-0.2-0.4-0.3-0.8-0.3-1.2c0-0.5,0.2-1,0.6-1.4c0.4-0.4,1-0.6,1.6-0.6c0.5,0,0.9,0.1,1.3,0.4c0.4,0.3,0.7,0.6,0.9,1.1l5.3,12
		l14.8-33.4c0.2-0.5,0.5-0.8,0.8-1.1c0.4-0.3,0.7-0.4,1.2-0.3C221.2,226.7,221.7,226.9,222.1,227.3z"/>
	<path display="inline" fill="#00AEEF" d="M218.8,238l3.7-8.1c0.2-0.5,0.3-0.8,0.3-1.1c0-0.6-0.2-1.1-0.6-1.5
		c-0.4-0.4-0.9-0.6-1.5-0.6c-0.4,0-0.8,0.1-1.2,0.3c-0.4,0.3-0.6,0.6-0.8,1.1l-4.4,9.9H218.8z"/>
	<path display="inline" fill="#7E9099" d="M129.9,191.2H54.6c-2.9,0-5.3-2.4-5.3-5.3v-29.3c0-2.9,2.4-5.3,5.3-5.3h75.3
		c2.9,0,5.3,2.4,5.3,5.3v29.3C135.2,188.8,132.8,191.2,129.9,191.2z"/>
	
		<text transform="matrix(1 0 0 1 59.2189 181.6258)" display="inline" fill="#FFFFFF" font-family="'Quicksand-Bold'" font-size="38.063">e  a</text>
	<path display="inline" fill="#BAF4FF" d="M110.3,140.5c0.4,0.4,0.6,0.9,0.6,1.5c0,0.3-0.1,0.7-0.3,1.1l-16.7,37.1
		c-0.2,0.4-0.4,0.8-0.8,1c-0.3,0.3-0.7,0.4-1.2,0.4l-0.3,0c-0.4,0-0.8-0.1-1.2-0.4c-0.4-0.3-0.7-0.6-0.9-1.1l-7.1-15.7
		c-0.2-0.4-0.3-0.8-0.3-1.2c0-0.5,0.2-1,0.6-1.4c0.4-0.4,1-0.6,1.6-0.6c0.5,0,0.9,0.1,1.3,0.4c0.4,0.3,0.7,0.6,0.9,1.1l5.3,12
		l14.8-33.4c0.2-0.5,0.5-0.8,0.8-1.1c0.4-0.3,0.7-0.4,1.2-0.3C109.4,139.9,109.9,140.1,110.3,140.5z"/>
	<path display="inline" fill="none" stroke="#7E9099" stroke-miterlimit="10" d="M237.3,189.7h-75.3c-2.9,0-5.3-2.4-5.3-5.3v-29.3
		c0-2.9,2.4-5.3,5.3-5.3h75.3c2.9,0,5.3,2.4,5.3,5.3v29.3C242.6,187.3,240.2,189.7,237.3,189.7z"/>
	
		<text transform="matrix(1 0 0 1 166.5867 183.1636)" display="inline" fill="#7E9099" font-family="'Quicksand-Bold'" font-size="38.063">e  a</text>
	<g display="inline">
		<path fill="#00AEEF" d="M199,184.7c-0.8,0-1.5-0.2-2.1-0.7c-0.6-0.4-1-1-1.3-1.7l-7.1-15.7c-0.3-0.6-0.4-1.2-0.4-1.8
			c0-0.6,0.2-1.6,1.1-2.5c0.7-0.7,1.6-1.1,2.6-1.1c0.8,0,1.5,0.2,2.1,0.6c0.7,0.4,1.2,1,1.5,1.7l3.9,8.9l13.4-30.3
			c0.3-0.7,0.8-1.3,1.3-1.7c0.6-0.4,1.2-0.6,1.9-0.6c0.1,0,0.2,0,0.2,0c0.9,0,1.8,0.3,2.5,1c0.7,0.7,1.1,1.6,1.1,2.5
			c0,0.5-0.1,1.1-0.4,1.8l-16.7,37.1c-0.3,0.6-0.7,1.2-1.3,1.6c-0.6,0.4-1.2,0.7-2,0.7L199,184.7L199,184.7z"/>
		<path fill="#FFFFFF" d="M216.1,141.4c0,0,0.1,0,0.1,0c0.6,0,1.1,0.2,1.5,0.6c0.4,0.4,0.6,0.9,0.6,1.5c0,0.3-0.1,0.7-0.3,1.1
			l-16.7,37.1c-0.2,0.4-0.4,0.8-0.8,1c-0.3,0.3-0.7,0.4-1.2,0.4l-0.3,0c-0.4,0-0.8-0.1-1.2-0.4c-0.4-0.3-0.7-0.6-0.9-1.1l-7.1-15.7
			c-0.2-0.4-0.3-0.8-0.3-1.2c0-0.5,0.2-1,0.6-1.4c0.4-0.4,1-0.6,1.6-0.6c0.5,0,0.9,0.1,1.3,0.4c0.4,0.3,0.7,0.6,0.9,1.1l5.3,12
			l14.8-33.4c0.2-0.5,0.5-0.8,0.8-1.1C215.3,141.5,215.7,141.4,216.1,141.4 M216.1,138.4L216.1,138.4c-1,0-2,0.3-2.8,0.9
			c-0.8,0.6-1.4,1.4-1.8,2.3l-12,27.1l-2.5-5.8c-0.5-1-1.2-1.8-2.1-2.4c-0.9-0.6-1.9-0.8-2.9-0.8c-1.4,0-2.7,0.5-3.7,1.5
			c-1.3,1.3-1.6,2.6-1.6,3.5c0,0.8,0.2,1.6,0.5,2.4l7.1,15.7c0.4,0.9,1,1.7,1.8,2.3c0.9,0.6,1.9,1,3,1h0.2l0.2,0l0.3,0
			c1-0.1,1.9-0.4,2.7-1c0.8-0.6,1.4-1.3,1.7-2.2l16.7-37c0.4-0.9,0.6-1.6,0.6-2.4c0-1.4-0.5-2.7-1.5-3.6c-1-0.9-2.2-1.4-3.5-1.4
			C216.2,138.4,216.1,138.4,216.1,138.4L216.1,138.4z"/>
	</g>
	<path display="inline" fill="none" stroke="#00AEEF" stroke-miterlimit="10" d="M566,338h-35.5c-1.4,0-2.5-1.9-2.5-4.3v-23.6
		c0-2.4,1.1-4.3,2.5-4.3H566c1.4,0,2.5,1.9,2.5,4.3v23.6C568.6,336.1,567.4,338,566,338z"/>
	<g display="inline">
		<path fill="#00AEEF" d="M544,335.6c-0.8,0-1.5-0.2-2.1-0.7c-0.6-0.4-1-1-1.3-1.7l-7.1-15.7c-0.3-0.6-0.4-1.2-0.4-1.8
			c0-0.6,0.2-1.6,1.1-2.5c0.7-0.7,1.6-1.1,2.6-1.1c0.8,0,1.5,0.2,2.1,0.6c0.7,0.4,1.2,1,1.5,1.7l3.9,8.9l13.4-30.3
			c0.3-0.7,0.8-1.3,1.3-1.7c0.6-0.4,1.2-0.6,1.9-0.6c0.1,0,0.2,0,0.2,0c0.9,0,1.8,0.3,2.5,1c0.7,0.7,1.1,1.6,1.1,2.5
			c0,0.5-0.1,1.1-0.4,1.8l-16.7,37.1c-0.3,0.6-0.7,1.2-1.3,1.6c-0.6,0.4-1.2,0.7-2,0.7L544,335.6L544,335.6z"/>
		<path fill="#FFFFFF" d="M561,292.3c0,0,0.1,0,0.1,0c0.6,0,1.1,0.2,1.5,0.6c0.4,0.4,0.6,0.9,0.6,1.5c0,0.3-0.1,0.7-0.3,1.1
			l-16.7,37.1c-0.2,0.4-0.4,0.8-0.8,1c-0.3,0.3-0.7,0.4-1.2,0.4l-0.3,0c-0.4,0-0.8-0.1-1.2-0.4c-0.4-0.3-0.7-0.6-0.9-1.1l-7.1-15.7
			c-0.2-0.4-0.3-0.8-0.3-1.2c0-0.5,0.2-1,0.6-1.4c0.4-0.4,1-0.6,1.6-0.6c0.5,0,0.9,0.1,1.3,0.4c0.4,0.3,0.7,0.6,0.9,1.1l5.3,12
			l14.8-33.4c0.2-0.5,0.5-0.8,0.8-1.1C560.3,292.5,560.6,292.3,561,292.3 M561,289.3L561,289.3c-1,0-2,0.3-2.8,0.9
			c-0.8,0.6-1.4,1.4-1.8,2.3l-12,27.1l-2.5-5.8c-0.5-1-1.2-1.8-2.1-2.4c-0.9-0.6-1.9-0.8-2.9-0.8c-1.4,0-2.7,0.5-3.7,1.5
			c-1.3,1.3-1.6,2.6-1.6,3.5c0,0.8,0.2,1.6,0.5,2.4l7.1,15.7c0.4,0.9,1,1.7,1.8,2.3c0.9,0.6,1.9,1,3,1h0.2l0.2,0l0.3,0
			c1-0.1,1.9-0.4,2.7-1c0.8-0.6,1.4-1.3,1.7-2.2l16.7-37c0.4-0.9,0.6-1.6,0.6-2.4c0-1.4-0.5-2.7-1.5-3.6c-1-0.9-2.2-1.4-3.5-1.4
			C561.2,289.3,561.1,289.3,561,289.3L561,289.3z"/>
	</g>
	<path display="inline" fill="none" stroke="#00AEEF" stroke-miterlimit="10" d="M327.7,195.4h-75.3c-2.9,0-5.3-2.4-5.3-5.3v-29.3
		c0-2.9,2.4-5.3,5.3-5.3h75.3c2.9,0,5.3,2.4,5.3,5.3v29.3C333,193,330.6,195.4,327.7,195.4z"/>
	
		<text transform="matrix(1 0 0 1 257.0003 188.8262)" display="inline" fill="#00AEEF" font-family="'Quicksand-Bold'" font-size="38.063">e  a</text>
	<g display="inline">
		<path fill="#00AEEF" d="M289.4,190.3c-0.8,0-1.5-0.2-2.1-0.7c-0.6-0.4-1-1-1.3-1.7l-7.1-15.7c-0.3-0.6-0.4-1.2-0.4-1.8
			c0-0.6,0.2-1.6,1.1-2.5c0.7-0.7,1.6-1.1,2.6-1.1c0.8,0,1.5,0.2,2.1,0.6c0.7,0.4,1.2,1,1.5,1.7l3.9,8.9l13.4-30.3
			c0.3-0.7,0.8-1.3,1.3-1.7c0.6-0.4,1.2-0.6,1.9-0.6c0.1,0,0.2,0,0.2,0c0.9,0,1.8,0.3,2.5,1c0.7,0.7,1.1,1.6,1.1,2.5
			c0,0.5-0.1,1.1-0.4,1.8L293.1,188c-0.3,0.6-0.7,1.2-1.3,1.6c-0.6,0.4-1.2,0.7-2,0.7L289.4,190.3L289.4,190.3z"/>
		<path fill="#FFFFFF" d="M306.5,147.1c0,0,0.1,0,0.1,0c0.6,0,1.1,0.2,1.5,0.6c0.4,0.4,0.6,0.9,0.6,1.5c0,0.3-0.1,0.7-0.3,1.1
			l-16.7,37.1c-0.2,0.4-0.4,0.8-0.8,1c-0.3,0.3-0.7,0.4-1.2,0.4l-0.3,0c-0.4,0-0.8-0.1-1.2-0.4c-0.4-0.3-0.7-0.6-0.9-1.1l-7.1-15.7
			c-0.2-0.4-0.3-0.8-0.3-1.2c0-0.5,0.2-1,0.6-1.4c0.4-0.4,1-0.6,1.6-0.6c0.5,0,0.9,0.1,1.3,0.4c0.4,0.3,0.7,0.6,0.9,1.1l5.3,12
			l14.8-33.4c0.2-0.5,0.5-0.8,0.8-1.1C305.7,147.2,306.1,147.1,306.5,147.1 M306.5,144.1L306.5,144.1c-1,0-2,0.3-2.8,0.9
			c-0.8,0.6-1.4,1.4-1.8,2.3l-12,27.1l-2.5-5.8c-0.5-1-1.2-1.8-2.1-2.4c-0.9-0.6-1.9-0.8-2.9-0.8c-1.4,0-2.7,0.5-3.7,1.5
			c-1.3,1.3-1.6,2.6-1.6,3.5c0,0.8,0.2,1.6,0.5,2.4l7.1,15.7c0.4,0.9,1,1.7,1.8,2.3c0.9,0.6,1.9,1,3,1h0.2l0.2,0l0.3,0
			c1-0.1,1.9-0.4,2.7-1c0.8-0.6,1.4-1.3,1.7-2.2l16.7-37c0.4-0.9,0.6-1.6,0.6-2.4c0-1.4-0.5-2.7-1.5-3.6c-1-0.9-2.2-1.4-3.5-1.4
			C306.6,144.1,306.5,144.1,306.5,144.1L306.5,144.1z"/>
	</g>
	<path display="inline" fill="#00AEEF" d="M552.7,85h-75.3c-2.9,0-5.3-2.4-5.3-5.3V50.3c0-2.9,2.4-5.3,5.3-5.3h75.3
		c2.9,0,5.3,2.4,5.3,5.3v29.3C558,82.6,555.6,85,552.7,85z"/>
	
		<text transform="matrix(1 0 0 1 482.0001 75.4045)" display="inline" fill="#BAF4FF" font-family="'Quicksand-Bold'" font-size="38.063">e  a</text>
	<path display="inline" fill="#FFFFFF" d="M533.1,34.3c0.4,0.4,0.6,0.9,0.6,1.5c0,0.3-0.1,0.7-0.3,1.1L516.7,74
		c-0.2,0.4-0.4,0.8-0.8,1c-0.3,0.3-0.7,0.4-1.2,0.4l-0.3,0c-0.4,0-0.8-0.1-1.2-0.4c-0.4-0.3-0.7-0.6-0.9-1.1l-7.1-15.7
		c-0.2-0.4-0.3-0.8-0.3-1.2c0-0.5,0.2-1,0.6-1.4c0.4-0.4,1-0.6,1.6-0.6c0.5,0,0.9,0.1,1.3,0.4c0.4,0.3,0.7,0.6,0.9,1.1l5.3,12
		l14.8-33.4c0.2-0.5,0.5-0.8,0.8-1.1c0.4-0.3,0.7-0.4,1.2-0.3C532.2,33.7,532.7,33.9,533.1,34.3z"/>
	<path display="inline" fill="#BAF4FF" d="M529.8,45l3.7-8.1c0.2-0.5,0.3-0.8,0.3-1.1c0-0.6-0.2-1.1-0.6-1.5
		c-0.4-0.4-0.9-0.6-1.5-0.6c-0.4,0-0.8,0.1-1.2,0.3c-0.4,0.3-0.6,0.6-0.8,1.1l-4.4,9.9H529.8z"/>
	<path display="inline" fill="#00AEEF" d="M338.7,273h-75.3c-2.9,0-5.3-2.4-5.3-5.3v-29.3c0-2.9,2.4-5.3,5.3-5.3h75.3
		c2.9,0,5.3,2.4,5.3,5.3v29.3C344,270.6,341.6,273,338.7,273z"/>
	
		<text transform="matrix(1 0 0 1 268 263.5712)" display="inline" fill="#FFFFFF" font-family="'Quicksand-Bold'" font-size="38.063">e  a</text>
	<path display="inline" fill="#FFFFFF" d="M320.1,222.4c0.4,0.4,0.6,0.9,0.6,1.5c0,0.3-0.1,0.7-0.3,1.1l-16.7,37.1
		c-0.2,0.4-0.4,0.8-0.8,1c-0.3,0.3-0.7,0.4-1.2,0.4l-0.3,0c-0.4,0-0.8-0.1-1.2-0.4c-0.4-0.3-0.7-0.6-0.9-1.1l-7.1-15.7
		c-0.2-0.4-0.3-0.8-0.3-1.2c0-0.5,0.2-1,0.6-1.4c0.4-0.4,1-0.6,1.6-0.6c0.5,0,0.9,0.1,1.3,0.4c0.4,0.3,0.7,0.6,0.9,1.1l5.3,12
		l14.8-33.4c0.2-0.5,0.5-0.8,0.8-1.1c0.4-0.3,0.7-0.4,1.2-0.3C319.2,221.8,319.7,222,320.1,222.4z"/>
	<path display="inline" fill="#00AEEF" d="M316.8,233l3.7-8.1c0.2-0.5,0.3-0.8,0.3-1.1c0-0.6-0.2-1.1-0.6-1.5
		c-0.4-0.4-0.9-0.6-1.5-0.6c-0.4,0-0.8,0.1-1.2,0.3c-0.4,0.3-0.6,0.6-0.8,1.1l-4.4,9.9H316.8z"/>
	<path display="inline" fill="none" stroke="#00AEEF" stroke-miterlimit="10" d="M218.5,134.8h-75.3c-2.9,0-5.3-2.4-5.3-5.3v-29.3
		c0-2.9,2.4-5.3,5.3-5.3h75.3c2.9,0,5.3,2.4,5.3,5.3v29.3C223.9,132.4,221.5,134.8,218.5,134.8z"/>
	<g display="inline">
		<text transform="matrix(1 0 0 1 147.8719 128.2792)" font-family="'Quicksand-Bold'" font-size="38.063">e  a</text>
	</g>
	<g display="inline">
		<path fill="#00AEEF" d="M180.3,129.8c-0.8,0-1.5-0.2-2.1-0.7c-0.6-0.4-1-1-1.3-1.7l-7.1-15.7c-0.3-0.6-0.4-1.2-0.4-1.8
			c0-0.6,0.2-1.6,1.1-2.5c0.7-0.7,1.6-1.1,2.6-1.1c0.8,0,1.5,0.2,2.1,0.6c0.7,0.4,1.2,1,1.5,1.7l3.9,8.9l13.4-30.3
			c0.3-0.7,0.8-1.3,1.3-1.7c0.6-0.4,1.2-0.6,1.9-0.6c0.1,0,0.2,0,0.2,0c0.9,0,1.8,0.3,2.5,1c0.7,0.7,1.1,1.6,1.1,2.5
			c0,0.5-0.1,1.1-0.4,1.8L184,127.4c-0.3,0.6-0.7,1.2-1.3,1.6c-0.6,0.4-1.2,0.7-2,0.7L180.3,129.8L180.3,129.8z"/>
		<path fill="#FFFFFF" d="M197.3,86.5c0,0,0.1,0,0.1,0c0.6,0,1.1,0.2,1.5,0.6c0.4,0.4,0.6,0.9,0.6,1.5c0,0.3-0.1,0.7-0.3,1.1
			l-16.7,37.1c-0.2,0.4-0.4,0.8-0.8,1c-0.3,0.3-0.7,0.4-1.2,0.4l-0.3,0c-0.4,0-0.8-0.1-1.2-0.4c-0.4-0.3-0.7-0.6-0.9-1.1l-7.1-15.7
			c-0.2-0.4-0.3-0.8-0.3-1.2c0-0.5,0.2-1,0.6-1.4c0.4-0.4,1-0.6,1.6-0.6c0.5,0,0.9,0.1,1.3,0.4c0.4,0.3,0.7,0.6,0.9,1.1l5.3,12
			L195.4,88c0.2-0.5,0.5-0.8,0.8-1.1C196.6,86.6,197,86.5,197.3,86.5 M197.3,83.5c-1,0-2,0.3-2.8,0.9c-0.8,0.6-1.4,1.4-1.8,2.3
			l-12,27.1l-2.5-5.8c-0.5-1-1.2-1.8-2.1-2.4c-0.9-0.6-1.9-0.8-2.9-0.8c-1.4,0-2.7,0.5-3.7,1.5c-1.3,1.3-1.6,2.6-1.6,3.5
			c0,0.8,0.2,1.6,0.5,2.4l7.1,15.7c0.4,0.9,1,1.7,1.8,2.3c0.9,0.6,1.9,1,3,1h0.2l0.2,0l0.3,0c1-0.1,1.9-0.4,2.7-1
			c0.8-0.6,1.4-1.3,1.7-2.2l16.7-37c0.4-0.9,0.6-1.6,0.6-2.4c0-1.4-0.5-2.7-1.5-3.6c-1-0.9-2.2-1.4-3.5-1.4
			C197.5,83.5,197.4,83.5,197.3,83.5L197.3,83.5z"/>
	</g>
	<path display="inline" fill="#00AEEF" d="M551.7,147h-75.3c-2.9,0-5.3-2.4-5.3-5.3v-29.3c0-2.9,2.4-5.3,5.3-5.3h75.3
		c2.9,0,5.3,2.4,5.3,5.3v29.3C557,144.6,554.6,147,551.7,147z"/>
	
		<text transform="matrix(1 0 0 1 481.0001 137.4045)" display="inline" fill="#BAF4FF" font-family="'Quicksand-Bold'" font-size="38.063">e  a</text>
	<path display="inline" fill="#BAF4FF" d="M532.1,96.3c0.4,0.4,0.6,0.9,0.6,1.5c0,0.3-0.1,0.7-0.3,1.1L515.7,136
		c-0.2,0.4-0.4,0.8-0.8,1c-0.3,0.3-0.7,0.4-1.2,0.4l-0.3,0c-0.4,0-0.8-0.1-1.2-0.4c-0.4-0.3-0.7-0.6-0.9-1.1l-7.1-15.7
		c-0.2-0.4-0.3-0.8-0.3-1.2c0-0.5,0.2-1,0.6-1.4c0.4-0.4,1-0.6,1.6-0.6c0.5,0,0.9,0.1,1.3,0.4c0.4,0.3,0.7,0.6,0.9,1.1l5.3,12
		l14.8-33.4c0.2-0.5,0.5-0.8,0.8-1.1c0.4-0.3,0.7-0.4,1.2-0.3C531.2,95.7,531.7,95.9,532.1,96.3z"/>
	<path display="inline" fill="#BAF4FF" d="M528.8,107l3.7-8.1c0.2-0.5,0.3-0.8,0.3-1.1c0-0.6-0.2-1.1-0.6-1.5
		c-0.4-0.4-0.9-0.6-1.5-0.6c-0.4,0-0.8,0.1-1.2,0.3c-0.4,0.3-0.6,0.6-0.8,1.1l-4.4,9.9H528.8z"/>
	<path display="inline" fill="none" stroke="#000000" stroke-miterlimit="10" d="M313.7,134.8h-75.3c-2.9,0-5.3-2.4-5.3-5.3v-29.3
		c0-2.9,2.4-5.3,5.3-5.3h75.3c2.9,0,5.3,2.4,5.3,5.3v29.3C319,132.4,316.6,134.8,313.7,134.8z"/>
	<g display="inline">
		<text transform="matrix(1 0 0 1 243.0003 128.2792)" font-family="'Quicksand-Bold'" font-size="38.063">e  a</text>
	</g>
	<g display="inline">
		<path fill="#00AEEF" d="M275.4,129.8c-0.8,0-1.5-0.2-2.1-0.7c-0.6-0.4-1-1-1.3-1.7l-7.1-15.7c-0.3-0.6-0.4-1.2-0.4-1.8
			c0-0.6,0.2-1.6,1.1-2.5c0.7-0.7,1.6-1.1,2.6-1.1c0.8,0,1.5,0.2,2.1,0.6c0.7,0.4,1.2,1,1.5,1.7l3.9,8.9l13.4-30.3
			c0.3-0.7,0.8-1.3,1.3-1.7c0.6-0.4,1.2-0.6,1.9-0.6c0.1,0,0.2,0,0.2,0c0.9,0,1.8,0.3,2.5,1c0.7,0.7,1.1,1.6,1.1,2.5
			c0,0.5-0.1,1.1-0.4,1.8l-16.7,37.1c-0.3,0.6-0.7,1.2-1.3,1.6c-0.6,0.4-1.2,0.7-2,0.7L275.4,129.8L275.4,129.8z"/>
		<path fill="#FFFFFF" d="M292.5,86.5c0,0,0.1,0,0.1,0c0.6,0,1.1,0.2,1.5,0.6c0.4,0.4,0.6,0.9,0.6,1.5c0,0.3-0.1,0.7-0.3,1.1
			l-16.7,37.1c-0.2,0.4-0.4,0.8-0.8,1c-0.3,0.3-0.7,0.4-1.2,0.4l-0.3,0c-0.4,0-0.8-0.1-1.2-0.4c-0.4-0.3-0.7-0.6-0.9-1.1l-7.1-15.7
			c-0.2-0.4-0.3-0.8-0.3-1.2c0-0.5,0.2-1,0.6-1.4c0.4-0.4,1-0.6,1.6-0.6c0.5,0,0.9,0.1,1.3,0.4c0.4,0.3,0.7,0.6,0.9,1.1l5.3,12
			L290.6,88c0.2-0.5,0.5-0.8,0.8-1.1C291.7,86.6,292.1,86.5,292.5,86.5 M292.5,83.5c-1,0-2,0.3-2.8,0.9c-0.8,0.6-1.4,1.4-1.8,2.3
			l-12,27.1l-2.5-5.8c-0.5-1-1.2-1.8-2.1-2.4c-0.9-0.6-1.9-0.8-2.9-0.8c-1.4,0-2.7,0.5-3.7,1.5c-1.3,1.3-1.6,2.6-1.6,3.5
			c0,0.8,0.2,1.6,0.5,2.4l7.1,15.7c0.4,0.9,1,1.7,1.8,2.3c0.9,0.6,1.9,1,3,1h0.2l0.2,0l0.3,0c1-0.1,1.9-0.4,2.7-1
			c0.8-0.6,1.4-1.3,1.7-2.2l16.7-37c0.4-0.9,0.6-1.6,0.6-2.4c0-1.4-0.5-2.7-1.5-3.6c-1-0.9-2.2-1.4-3.5-1.4
			C292.6,83.5,292.5,83.5,292.5,83.5L292.5,83.5z"/>
	</g>
	<path display="inline" fill="#00AEEF" d="M244.7,340h-75.3c-2.9,0-5.3-2.4-5.3-5.3v-29.3c0-2.9,2.4-5.3,5.3-5.3h75.3
		c2.9,0,5.3,2.4,5.3,5.3v29.3C250,337.6,247.6,340,244.7,340z"/>
	
		<text transform="matrix(1 0 0 1 174.0001 330.4045)" display="inline" fill="#BAF4FF" font-family="'Quicksand-Bold'" font-size="38.063">e  a</text>
	<path display="inline" fill="#BAF4FF" d="M225.1,289.3c0.4,0.4,0.6,0.9,0.6,1.5c0,0.3-0.1,0.7-0.3,1.1L208.7,329
		c-0.2,0.4-0.4,0.8-0.8,1c-0.3,0.3-0.7,0.4-1.2,0.4l-0.3,0c-0.4,0-0.8-0.1-1.2-0.4c-0.4-0.3-0.7-0.6-0.9-1.1l-7.1-15.7
		c-0.2-0.4-0.3-0.8-0.3-1.2c0-0.5,0.2-1,0.6-1.4c0.4-0.4,1-0.6,1.6-0.6c0.5,0,0.9,0.1,1.3,0.4c0.4,0.3,0.7,0.6,0.9,1.1l5.3,12
		l14.8-33.4c0.2-0.5,0.5-0.8,0.8-1.1c0.4-0.3,0.7-0.4,1.2-0.3C224.2,288.7,224.7,288.9,225.1,289.3z"/>
	<path display="inline" fill="#00AEEF" d="M221.8,300l3.7-8.1c0.2-0.5,0.3-0.8,0.3-1.1c0-0.6-0.2-1.1-0.6-1.5
		c-0.4-0.4-0.9-0.6-1.5-0.6c-0.4,0-0.8,0.1-1.2,0.3c-0.4,0.3-0.6,0.6-0.8,1.1l-4.4,9.9H221.8z"/>
	<path display="inline" fill="#00AEEF" d="M540.5,532.2H55.9c-2.9,0-5.3-2.4-5.3-5.3v-29.3c0-2.9,2.4-5.3,5.3-5.3h484.6
		c2.9,0,5.3,2.4,5.3,5.3v29.3C545.8,529.8,543.4,532.2,540.5,532.2z"/>
	
		<text transform="matrix(1 0 0 1 60.5543 522.567)" display="inline" fill="#BAF4FF" font-family="'Quicksand-Bold'" font-size="38.063">e  a</text>
	<path display="inline" fill="#BAF4FF" d="M111.7,481.4c0.4,0.4,0.6,0.9,0.6,1.5c0,0.3-0.1,0.7-0.3,1.1l-16.7,37.1
		c-0.2,0.4-0.4,0.8-0.8,1c-0.3,0.3-0.7,0.4-1.2,0.4l-0.3,0c-0.4,0-0.8-0.1-1.2-0.4c-0.4-0.3-0.7-0.6-0.9-1.1l-7.1-15.7
		c-0.2-0.4-0.3-0.8-0.3-1.2c0-0.5,0.2-1,0.6-1.4c0.4-0.4,1-0.6,1.6-0.6c0.5,0,0.9,0.1,1.3,0.4c0.4,0.3,0.7,0.6,0.9,1.1l5.3,12
		l14.8-33.4c0.2-0.5,0.5-0.8,0.8-1.1c0.4-0.3,0.7-0.4,1.2-0.3C110.7,480.8,111.3,481,111.7,481.4z"/>
	<rect x="40.5" y="454.5" display="inline" fill="#7E9099" width="513" height="16"/>
	<path display="inline" fill="none" stroke="#00AEEF" stroke-miterlimit="10" d="M151.5,696.5h-76c-6.6,0-12-5.4-12-12v-136
		c0-6.6,5.4-12,12-12h76c6.6,0,12,5.4,12,12v136C163.5,691.1,158.1,696.5,151.5,696.5z"/>
	<path display="inline" fill="none" stroke="#00AEEF" stroke-miterlimit="10" d="M517.5,696.5h-336c-6.6,0-12-5.4-12-12v-136
		c0-6.6,5.4-12,12-12h336c6.6,0,12,5.4,12,12v136C529.5,691.1,524.1,696.5,517.5,696.5z"/>
	<path display="inline" fill="#00AEEF" d="M134.7,277H59.3c-2.9,0-5.3-2.4-5.3-5.3v-29.3c0-2.9,2.4-5.3,5.3-5.3h75.3
		c2.9,0,5.3,2.4,5.3,5.3v29.3C140,274.6,137.6,277,134.7,277z"/>
	
		<text transform="matrix(1 0 0 1 64.0001 267.4045)" display="inline" fill="#BAF4FF" font-family="'Quicksand-Bold'" font-size="38.063">e  a</text>
	<path display="inline" fill="#FFFFFF" d="M115.1,226.3c0.4,0.4,0.6,0.9,0.6,1.5c0,0.3-0.1,0.7-0.3,1.1L98.7,266
		c-0.2,0.4-0.4,0.8-0.8,1c-0.3,0.3-0.7,0.4-1.2,0.4l-0.3,0c-0.4,0-0.8-0.1-1.2-0.4c-0.4-0.3-0.7-0.6-0.9-1.1l-7.1-15.7
		c-0.2-0.4-0.3-0.8-0.3-1.2c0-0.5,0.2-1,0.6-1.4c0.4-0.4,1-0.6,1.6-0.6c0.5,0,0.9,0.1,1.3,0.4c0.4,0.3,0.7,0.6,0.9,1.1l5.3,12
		l14.8-33.4c0.2-0.5,0.5-0.8,0.8-1.1c0.4-0.3,0.7-0.4,1.2-0.3C114.2,225.7,114.7,225.9,115.1,226.3z"/>
	<path display="inline" fill="#00AEEF" d="M111.8,237l3.7-8.1c0.2-0.5,0.3-0.8,0.3-1.1c0-0.6-0.2-1.1-0.6-1.5
		c-0.4-0.4-0.9-0.6-1.5-0.6c-0.4,0-0.8,0.1-1.2,0.3c-0.4,0.3-0.6,0.6-0.8,1.1l-4.4,9.9H111.8z"/>
	<path display="inline" fill="#00AEEF" d="M131.9,532H56.6c-2.9,0-5.3-2.4-5.3-5.3v-29.3c0-2.9,2.4-5.3,5.3-5.3h75.3
		c2.9,0,5.3,2.4,5.3,5.3v29.3C137.2,529.6,134.8,532,131.9,532z"/>
	
		<text transform="matrix(1 0 0 1 61.2191 522.4048)" display="inline" fill="#FFFFFF" font-family="'Quicksand-Bold'" font-size="38.063">e  a</text>
	<path display="inline" fill="#FFFFFF" d="M112.3,481.3c0.4,0.4,0.6,0.9,0.6,1.5c0,0.3-0.1,0.7-0.3,1.1L95.9,521
		c-0.2,0.4-0.4,0.8-0.8,1c-0.3,0.3-0.7,0.4-1.2,0.4l-0.3,0c-0.4,0-0.8-0.1-1.2-0.4c-0.4-0.3-0.7-0.6-0.9-1.1l-7.1-15.7
		c-0.2-0.4-0.3-0.8-0.3-1.2c0-0.5,0.2-1,0.6-1.4c0.4-0.4,1-0.6,1.6-0.6c0.5,0,0.9,0.1,1.3,0.4c0.4,0.3,0.7,0.6,0.9,1.1l5.3,12
		l14.8-33.4c0.2-0.5,0.5-0.8,0.8-1.1c0.4-0.3,0.7-0.4,1.2-0.3C111.4,480.7,111.9,480.9,112.3,481.3z"/>
	<path display="inline" fill="#00AEEF" d="M520.3,565.6h-14.2c-0.6,0-1-0.9-1-2.1v-11.5c0-1.2,0.4-2.1,1-2.1h14.2c0.6,0,1,0.9,1,2.1
		v11.5C521.3,564.6,520.9,565.6,520.3,565.6z"/>
	<path display="inline" fill="#FFFFFF" d="M520.2,544.9c0.2,0.2,0.3,0.4,0.3,0.7c0,0.1,0,0.3-0.1,0.5l-7.6,16.9
		c-0.1,0.2-0.2,0.4-0.4,0.5c-0.2,0.1-0.3,0.2-0.5,0.2l-0.2,0c-0.2,0-0.4-0.1-0.5-0.2c-0.2-0.1-0.3-0.3-0.4-0.5l-3.2-7.1
		c-0.1-0.2-0.1-0.4-0.1-0.6c0-0.2,0.1-0.4,0.3-0.6c0.2-0.2,0.4-0.3,0.7-0.3c0.2,0,0.4,0.1,0.6,0.2c0.2,0.1,0.3,0.3,0.4,0.5l2.4,5.5
		l6.7-15.2c0.1-0.2,0.2-0.4,0.4-0.5c0.2-0.1,0.3-0.2,0.5-0.2C519.8,544.7,520,544.8,520.2,544.9z"/>
	<path display="inline" fill="#00AEEF" d="M518.6,550l1.7-3.8c0.1-0.2,0.1-0.4,0.1-0.6c0-0.3-0.1-0.5-0.3-0.7
		c-0.2-0.2-0.4-0.3-0.7-0.3c-0.2,0-0.4,0-0.5,0.2c-0.2,0.1-0.3,0.4-0.4,0.6l-2,4.6H518.6z"/>
	<path display="inline" fill="#00AEEF" d="M108.8,492l3.7-8.1c0.2-0.5,0.3-0.8,0.3-1.1c0-0.6-0.2-1.1-0.6-1.5
		c-0.4-0.4-0.9-0.6-1.5-0.6c-0.4,0-0.8,0.1-1.2,0.3c-0.4,0.3-0.6,0.6-0.8,1.1l-4.4,9.9H108.8z"/>
	<path display="inline" fill="none" stroke="#00AEEF" stroke-miterlimit="10" d="M520.3,586.6h-14.2c-0.6,0-1-0.9-1-2.1v-11.5
		c0-1.2,0.4-2.1,1-2.1h14.2c0.6,0,1,0.9,1,2.1v11.5C521.3,585.6,520.9,586.6,520.3,586.6z"/>
	<path display="inline" fill="#00AEEF" d="M466.3,392.7H322.4c-5.6,0-10.2-4.6-10.2-10.2v-56c0-5.6,4.6-10.2,10.2-10.2h143.8
		c5.6,0,10.2,4.6,10.2,10.2v56C476.4,388.1,471.9,392.7,466.3,392.7z"/>
	<g display="inline">
		<g>
			<path fill="#FFFFFF" d="M369.1,361c-0.9,0.7-1.9,1.1-3.1,1.1h-24c0.6,2.9,1.9,5.1,4,6.7c2.1,1.6,4.4,2.4,7,2.4
				c2,0,3.5-0.2,4.7-0.5c1.1-0.4,2-0.8,2.7-1.2c0.7-0.4,1.1-0.7,1.3-0.8c0.9-0.4,1.7-0.7,2.5-0.7c1,0,1.9,0.4,2.6,1.1
				c0.7,0.7,1.1,1.6,1.1,2.5c0,1.3-0.7,2.5-2,3.6c-1.4,1.1-3.2,2.1-5.4,2.8c-2.3,0.8-4.6,1.2-6.9,1.2c-4.1,0-7.6-0.8-10.6-2.5
				c-3-1.7-5.4-4-7-7c-1.6-3-2.5-6.3-2.5-10.1c0-4.2,0.9-7.8,2.6-11c1.7-3.1,4-5.6,6.9-7.2s5.9-2.5,9.2-2.5c3.2,0,6.2,0.9,9,2.6
				c2.8,1.7,5.1,4.1,6.8,7c1.7,3,2.5,6.2,2.5,9.6C370.4,359.3,370,360.2,369.1,361z M342.1,354.8h19v-0.5c-0.2-2-1.2-3.8-3-5.2
				s-3.8-2.2-6.1-2.2C346.5,346.9,343.1,349.5,342.1,354.8z"/>
			<path fill="#FFFFFF" d="M453,340.1c0.8,0.8,1.2,1.9,1.2,3.2v30.7c0,1.3-0.4,2.3-1.2,3.2c-0.8,0.8-1.9,1.3-3.1,1.3
				s-2.3-0.4-3.1-1.2c-0.8-0.8-1.2-1.9-1.3-3.1c-1.2,1.4-2.8,2.6-4.9,3.6c-2.1,1-4.2,1.5-6.5,1.5c-3.3,0-6.4-0.9-9.1-2.6
				c-2.7-1.7-4.9-4.1-6.4-7.2c-1.6-3.1-2.4-6.5-2.4-10.4s0.8-7.4,2.3-10.4c1.6-3.1,3.7-5.5,6.4-7.2c2.7-1.7,5.7-2.6,8.9-2.6
				c2.3,0,4.5,0.4,6.5,1.3c2,0.8,3.8,1.9,5.2,3.2v-0.1c0-1.3,0.4-2.3,1.2-3.2c0.8-0.8,1.9-1.3,3.1-1.3S452.2,339.3,453,340.1z
				 M442.9,367.8c2-2.3,3-5.2,3-8.7c0-3.5-1-6.4-3-8.7c-2-2.3-4.6-3.5-7.7-3.5c-3.1,0-5.6,1.2-7.6,3.5c-2,2.3-3,5.2-3,8.7
				c0,3.5,1,6.4,2.9,8.7c2,2.3,4.5,3.5,7.7,3.5C438.4,371.2,440.9,370.1,442.9,367.8z"/>
		</g>
		<path fill="#FFFFFF" d="M430.3,299.9c0.8,0.8,1.2,1.7,1.2,2.8c0,0.6-0.2,1.3-0.6,2.2L399,375.7c-0.3,0.8-0.8,1.5-1.5,2
			c-0.7,0.5-1.4,0.8-2.2,0.8l-0.7,0.1c-0.8,0-1.6-0.3-2.3-0.8c-0.7-0.5-1.2-1.2-1.6-2.1l-13.5-29.9c-0.3-0.8-0.5-1.5-0.5-2.3
			c0-1,0.4-1.9,1.2-2.7c0.8-0.8,1.8-1.2,3.1-1.2c0.9,0,1.8,0.2,2.5,0.7c0.8,0.5,1.4,1.2,1.7,2l10,23l28.2-63.7
			c0.4-0.9,0.9-1.6,1.6-2.1c0.7-0.5,1.4-0.7,2.3-0.7C428.6,298.8,429.6,299.2,430.3,299.9z"/>
	</g>
	<path display="inline" fill="#00AEEF" d="M425.8,316l7-15.4c0.4-0.9,0.6-1.5,0.6-2.1c0-1.1-0.4-2-1.2-2.8c-0.8-0.8-1.8-1.1-2.9-1.1
		c-0.8,0-1.6,0.2-2.3,0.7c-0.7,0.5-1.2,1-1.6,1.9L417,316H425.8z"/>
</g>
<g id="Layer_7">
</g>
<g id="Layer_6">
	<path fill="#00AEEF" d="M626.8,570.5H-31.5c-25.7,0-46.6-20.9-46.6-46.6V267.6c0-25.7,20.9-46.6,46.6-46.6h658.3
		c25.7,0,46.6,20.9,46.6,46.6v256.3C673.4,549.6,652.5,570.5,626.8,570.5z"/>
	<g>
		<g>
			<path fill="#FFFFFF" d="M184.4,425.4c-4,3.3-8.6,5-14,5H60.7c2.7,13.1,8.8,23.3,18.3,30.8c9.5,7.4,20.3,11.1,32.3,11.1
				c9.1,0,16.2-0.8,21.3-2.5c5.1-1.7,9.1-3.4,12.1-5.3c3-1.9,5-3.2,6.2-3.8c4-2,7.8-3,11.3-3c4.7,0,8.7,1.7,12,5
				c3.3,3.3,5,7.2,5,11.6c0,6-3.1,11.4-9.3,16.3c-6.2,5.1-14.5,9.4-24.9,13c-10.4,3.5-21,5.3-31.6,5.3c-18.6,0-34.9-3.9-48.7-11.6
				c-13.9-7.8-24.6-18.5-32.1-32.1c-7.5-13.6-11.3-29-11.3-46.1c0-19.1,4-35.8,12-50.2c8-14.4,18.5-25.4,31.6-33.1
				c13.1-7.7,27.1-11.5,41.9-11.5c14.6,0,28.4,4,41.4,12c13,8,23.3,18.7,31.1,32.3c7.8,13.5,11.6,28.2,11.6,43.9
				C190.5,417.8,188.4,422.1,184.4,425.4z M61,397.2h87.1v-2.3c-0.9-9.3-5.4-17.3-13.6-23.9s-17.5-10-27.9-10
				C80.8,360.9,65.6,373,61,397.2z"/>
			<path fill="#FFFFFF" d="M568.5,330c3.8,3.8,5.7,8.6,5.7,14.6v140.7c0,5.8-1.9,10.6-5.7,14.5c-3.8,3.9-8.5,5.8-14.3,5.8
				s-10.5-1.9-14.1-5.7c-3.7-3.8-5.6-8.5-5.8-14.3c-5.5,6.4-13,11.9-22.5,16.5c-9.4,4.5-19.4,6.8-29.8,6.8
				c-15.3,0-29.2-3.9-41.6-11.8c-12.4-7.9-22.2-18.8-29.4-32.8c-7.2-14-10.8-29.8-10.8-47.6s3.5-33.6,10.6-47.7
				C418,355,427.7,344,440,336.1c12.3-7.9,25.9-11.8,40.7-11.8c10.6,0,20.6,1.9,29.9,5.8c9.3,3.9,17.2,8.8,23.6,14.8v-0.3
				c0-5.8,1.9-10.6,5.6-14.5c3.8-3.9,8.5-5.8,14.3-5.8S564.8,326.2,568.5,330z M522.3,456.5c9.1-10.5,13.6-23.8,13.6-39.7
				c0-16-4.5-29.3-13.6-39.9c-9.1-10.6-20.8-16-35.3-16c-14.2,0-25.8,5.3-34.9,16c-9.1,10.6-13.6,23.9-13.6,39.9
				c0,16,4.5,29.2,13.5,39.7c9,10.5,20.7,15.8,35.1,15.8S513.2,467.1,522.3,456.5z"/>
		</g>
		<path fill="#FFFFFF" d="M435.9,221L313.5,493c-1.6,3.8-3.8,6.8-6.8,9c-3,2.2-6.4,3.4-10.1,3.7l-3,0.3c-3.8,0-7.3-1.2-10.5-3.5
			c-3.2-2.3-5.7-5.5-7.5-9.5l-61.9-137c-1.6-3.5-2.3-7.1-2.3-10.6c0-4.4,1.9-8.5,5.6-12.1c3.8-3.7,8.4-5.5,14-5.5
			c4.2,0,8.1,1.1,11.6,3.3c3.5,2.2,6.2,5.3,8,9.3l45.9,105.1L395.8,221"/>
		<path fill="#00AEEF" d="M435.9,221l32.2-70c1.8-4,2.7-6.7,2.7-9.4c0-5.1-1.8-9.1-5.4-12.5c-3.6-3.5-8-5-13.4-5
			c-3.8-0.2-7.3,0.9-10.4,3.1c-3.1,2.2-5.6,4.2-7.4,8.4L395.8,221H435.9z"/>
	</g>
</g>
<g id="Layer_8" display="none">
	<text transform="matrix(1.004 0 0 1 8.0001 506.0899)" display="inline" font-family="'Quicksand-Bold'" font-size="333.8196">eva</text>
</g>
<g id="Layer_5" display="none">
	<path display="inline" fill="#00AEEF" d="M541.3,532.2H129c-2.5,0-4.5-2.4-4.5-5.3v-29.3c0-2.9,2-5.3,4.5-5.3h412.3
		c2.5,0,4.5,2.4,4.5,5.3v29.3C545.8,529.8,543.8,532.2,541.3,532.2z"/>
	<g display="inline">
		<path fill="#FFFFFF" d="M139,526.7c0,4-3.3,7.3-7.3,7.3H56.3c-4.1,0-7.3-3.3-7.3-7.3v-29.3c0-4,3.3-7.3,7.3-7.3h75.3
			c4.1,0,7.3,3.3,7.3,7.3V526.7z"/>
		<path fill="#FFFFFF" d="M131.2,532.2H55.9c-2.9,0-5.3-2.4-5.3-5.3v-29.3c0-2.9,2.4-5.3,5.3-5.3h75.3c2.9,0,5.3,2.4,5.3,5.3v29.3
			C136.6,529.8,134.2,532.2,131.2,532.2z"/>
		<path fill="#FFFFFF" d="M139,527.2c0,4.3-3.5,7.8-7.8,7.8H55.8c-4.3,0-7.8-3.5-7.8-7.8v-29.3c0-4.3,3.5-7.8,7.8-7.8h75.3
			c4.3,0,7.8,3.5,7.8,7.8V527.2z M134,497.8c0-1.6-1.3-2.8-2.8-2.8H55.8c-1.6,0-2.8,1.3-2.8,2.8v29.3c0,1.6,1.3,2.8,2.8,2.8h75.3
			c1.6,0,2.8-1.3,2.8-2.8V497.8z"/>
		<path fill="#00AEEF" d="M131.2,532.7H55.9c-3.2,0-5.8-2.6-5.8-5.8v-29.3c0-3.2,2.6-5.8,5.8-5.8h75.3c3.2,0,5.8,2.6,5.8,5.8v29.3
			C137.1,530,134.4,532.7,131.2,532.7z M55.9,492.7c-2.7,0-4.8,2.2-4.8,4.8v29.3c0,2.7,2.2,4.8,4.8,4.8h75.3c2.7,0,4.8-2.2,4.8-4.8
			v-29.3c0-2.7-2.2-4.8-4.8-4.8H55.9z"/>
	</g>
	
		<text transform="matrix(1 0 0 1 60.5545 525.6051)" display="inline" fill="#00AEEF" font-family="'Quicksand-Bold'" font-size="38.063">e  a</text>
	<g display="inline">
		<path fill="#00AEEF" d="M93,527.1c-0.8,0-1.5-0.2-2.1-0.7c-0.6-0.4-1-1-1.3-1.7l-7.1-15.7c-0.3-0.6-0.4-1.2-0.4-1.8
			c0-0.6,0.2-1.6,1.1-2.5c0.7-0.7,1.6-1.1,2.6-1.1c0.8,0,1.5,0.2,2.1,0.6c0.7,0.4,1.2,1,1.5,1.7l3.9,8.9l13.4-30.3
			c0.3-0.7,0.8-1.3,1.3-1.7c0.6-0.4,1.2-0.6,1.9-0.6c0.1,0,0.2,0,0.2,0c0.9,0,1.8,0.3,2.5,1c0.7,0.7,1.1,1.6,1.1,2.5
			c0,0.5-0.1,1.1-0.4,1.8l-16.7,37.1c-0.3,0.6-0.7,1.2-1.3,1.6c-0.6,0.4-1.2,0.7-2,0.7L93,527.1L93,527.1z"/>
		<path fill="#FFFFFF" d="M110,483.8c0,0,0.1,0,0.1,0c0.6,0,1.1,0.2,1.5,0.6c0.4,0.4,0.6,0.9,0.6,1.5c0,0.3-0.1,0.7-0.3,1.1
			l-16.7,37.1c-0.2,0.4-0.4,0.8-0.8,1c-0.3,0.3-0.7,0.4-1.2,0.4l-0.3,0c-0.4,0-0.8-0.1-1.2-0.4c-0.4-0.3-0.7-0.6-0.9-1.1l-7.1-15.7
			c-0.2-0.4-0.3-0.8-0.3-1.2c0-0.5,0.2-1,0.6-1.4c0.4-0.4,1-0.6,1.6-0.6c0.5,0,0.9,0.1,1.3,0.4c0.4,0.3,0.7,0.6,0.9,1.1l5.3,12
			l14.8-33.4c0.2-0.5,0.5-0.8,0.8-1.1C109.3,484,109.6,483.8,110,483.8 M110,480.8L110,480.8c-1,0-2,0.3-2.8,0.9
			c-0.8,0.6-1.4,1.4-1.8,2.3l-12,27.1l-2.5-5.8c-0.5-1-1.2-1.8-2.1-2.4c-0.9-0.6-1.9-0.8-2.9-0.8c-1.4,0-2.7,0.5-3.7,1.5
			c-1.3,1.3-1.6,2.6-1.6,3.5c0,0.8,0.2,1.6,0.5,2.4l7.1,15.7c0.4,0.9,1,1.7,1.8,2.3c0.9,0.6,1.9,1,3,1h0.2l0.2,0l0.3,0
			c1-0.1,1.9-0.4,2.7-1c0.8-0.6,1.4-1.3,1.7-2.2l16.7-37c0.4-0.9,0.6-1.6,0.6-2.4c0-1.4-0.5-2.7-1.5-3.6c-1-0.9-2.2-1.4-3.5-1.4
			C110.2,480.8,110.1,480.8,110,480.8L110,480.8z"/>
	</g>
	<rect x="40.5" y="454.5" display="inline" fill="#7E9099" width="513" height="16"/>
	<path display="inline" fill="none" stroke="#00AEEF" stroke-miterlimit="10" d="M128.3,696.2H60.7c-5.9,0-10.7-5.4-10.7-12v-136
		c0-6.6,4.8-12,10.7-12h67.6c5.9,0,10.7,5.4,10.7,12v136C139,690.8,134.2,696.2,128.3,696.2z"/>
	<path display="inline" fill="none" stroke="#00AEEF" stroke-miterlimit="10" d="M516.6,696.5H155.2c-7.1,0-12.9-5.4-12.9-12v-136
		c0-6.6,5.8-12,12.9-12h361.4c7.1,0,12.9,5.4,12.9,12v136C529.5,691.1,523.7,696.5,516.6,696.5z"/>
</g>
<g id="Layer_4" display="none">
	<rect x="13" y="25" display="inline" fill="#00AEEF" width="86" height="80"/>
	
		<text transform="matrix(1 0 0 1 23.2065 98.7166)" display="inline" fill="#FFFFFF" font-family="'Quicksand-Medium'" font-size="38.063">eva</text>
	<path display="inline" fill="#FFFFFF" d="M71.6,61.4c0.3,0.3,0.5,0.7,0.5,1.1c0,0.2-0.1,0.5-0.3,1l-15,34.1
		c-0.2,0.3-0.4,0.6-0.6,0.8c-0.3,0.2-0.6,0.3-0.9,0.3c-0.4,0.1-0.8,0-1.1-0.2c-0.3-0.2-0.6-0.5-0.8-0.9l-7.2-16.4
		c-0.1-0.4-0.2-0.7-0.2-1c0-0.4,0.2-0.8,0.5-1.1c0.3-0.3,0.8-0.5,1.3-0.5c0.4,0,0.7,0.1,1,0.3c0.3,0.2,0.5,0.5,0.7,0.9l5.7,13.4
		l13.5-31c0.4-0.8,0.9-1.1,1.6-1.1C70.9,60.9,71.3,61.1,71.6,61.4z"/>
	<rect x="102" y="55" display="inline" fill="#00AEEF" width="86" height="50"/>
	
		<text transform="matrix(1 0 0 1 112.2065 98.7166)" display="inline" fill="#A8E9FF" font-family="'Quicksand-Medium'" font-size="38.063">eva</text>
	<path display="inline" fill="#FFFFFF" d="M160.6,61.4c0.3,0.3,0.5,0.7,0.5,1.1c0,0.2-0.1,0.5-0.3,1l-15,34.1
		c-0.2,0.3-0.4,0.6-0.6,0.8c-0.3,0.2-0.6,0.3-0.9,0.3c-0.4,0.1-0.8,0-1.1-0.2c-0.3-0.2-0.6-0.5-0.8-0.9l-7.2-16.4
		c-0.1-0.4-0.2-0.7-0.2-1c0-0.4,0.2-0.8,0.5-1.1c0.3-0.3,0.8-0.5,1.3-0.5c0.4,0,0.7,0.1,1,0.3c0.3,0.2,0.5,0.5,0.7,0.9l5.7,13.4
		l13.5-31c0.4-0.8,0.9-1.1,1.6-1.1C159.9,60.9,160.3,61.1,160.6,61.4z"/>
	<path display="inline" fill="none" stroke="#00AEEF" stroke-miterlimit="10" d="M275.9,94.5h-66.8c-5.3,0-9.6-4.3-9.6-9.6V64.1
		c0-5.3,4.3-9.6,9.6-9.6h66.8c5.3,0,9.6,4.3,9.6,9.6v20.8C285.5,90.2,281.2,94.5,275.9,94.5z"/>
	<rect x="301" y="20" display="inline" fill="#00AEEF" width="86" height="80"/>
	<path display="inline" fill="#FFFFFF" d="M359.6,39.4c0.3,0.3,0.5,0.7,0.5,1.1c0,0.2-0.1,0.5-0.3,1l-15,34.1
		c-0.2,0.3-0.4,0.6-0.6,0.8c-0.3,0.2-0.6,0.3-0.9,0.3c-0.4,0.1-0.8,0-1.1-0.2c-0.3-0.2-0.6-0.5-0.8-0.9l-7.2-16.4
		c-0.1-0.4-0.2-0.7-0.2-1c0-0.4,0.2-0.8,0.5-1.1c0.3-0.3,0.8-0.5,1.3-0.5c0.4,0,0.7,0.1,1,0.3c0.3,0.2,0.5,0.5,0.7,0.9l5.7,13.4
		l13.5-31c0.4-0.8,0.9-1.1,1.6-1.1C358.9,38.9,359.3,39.1,359.6,39.4z"/>
	<g display="inline">
		<g>
			<linearGradient id="SVGID_1_" gradientUnits="userSpaceOnUse" x1="322.0547" y1="36.75" x2="322.0547" y2="99.5717">
				<stop  offset="1.019973e-008" style="stop-color:#FFFFFF;stop-opacity:0.6"/>
				<stop  offset="1" style="stop-color:#FFFFFF;stop-opacity:0"/>
			</linearGradient>
			<path fill="url(#SVGID_1_)" d="M331.4,87.7c0,1.8-0.5,3.5-1.3,4.9c-0.9,1.5-2,2.6-3.4,3.5s-2.9,1.3-4.6,1.3
				c-1.6,0-3.2-0.4-4.6-1.3s-2.6-2.1-3.5-3.7c-0.9-1.6-1.3-3.5-1.3-5.6c0-2,0.4-3.7,1.3-5.3c0.8-1.5,2.1-2.8,3.6-3.6
				c1.6-0.9,3.4-1.3,5.4-1.3c1.3,0,2.5,0.3,3.7,0.8c1.2,0.5,2.2,1.1,2.9,1.9c0.5,0.4,0.8,0.9,0.8,1.4c0,0.4-0.1,0.8-0.4,1.1
				c-0.3,0.3-0.7,0.5-1.1,0.5c-0.4,0-0.7-0.1-1.1-0.3c-0.6-0.6-1.3-1-2-1.4c-0.8-0.4-1.8-0.5-3-0.5c-1.8,0-3.3,0.6-4.5,1.7
				c-1.2,1.1-1.9,2.6-2.1,4.5h13.4c0.5,0,0.9,0.2,1.3,0.5C331.2,86.8,331.4,87.2,331.4,87.7z M322.1,94c1.4,0,2.6-0.4,3.7-1.3
				c1.1-0.9,1.7-2,1.8-3.3v-0.3h-11.2c0.3,1.7,1,2.9,2.1,3.7S320.7,94,322.1,94z"/>
			<linearGradient id="SVGID_2_" gradientUnits="userSpaceOnUse" x1="365.0845" y1="36.75" x2="365.0845" y2="99.5717">
				<stop  offset="1.019973e-008" style="stop-color:#FFFFFF;stop-opacity:0.6"/>
				<stop  offset="1" style="stop-color:#FFFFFF;stop-opacity:0"/>
			</linearGradient>
			<path fill="url(#SVGID_2_)" d="M372.9,97.2c-0.5,0-1-0.2-1.3-0.5c-0.3-0.4-0.5-0.8-0.5-1.3v-0.9c-0.7,0.9-1.6,1.6-2.8,2.1
				c-1.2,0.6-2.4,0.8-3.8,0.8c-1.7,0-3.2-0.4-4.6-1.3c-1.4-0.9-2.5-2.1-3.3-3.7c-0.8-1.6-1.2-3.4-1.2-5.3c0-2,0.4-3.8,1.2-5.3
				c0.8-1.6,1.9-2.8,3.3-3.7c1.4-0.9,3-1.3,4.7-1.3c1.3,0,2.6,0.3,3.7,0.9s2,1.4,2.7,2.3v-1c0-0.5,0.2-1,0.5-1.3
				c0.3-0.3,0.8-0.5,1.3-0.5c0.5,0,1,0.2,1.3,0.5c0.3,0.4,0.5,0.8,0.5,1.3v16.5c0,0.6-0.2,1-0.5,1.4C373.8,97,373.4,97.2,372.9,97.2
				z M365.1,79.9c-1.2,0-2.3,0.3-3.2,0.9c-0.9,0.6-1.7,1.4-2.2,2.5c-0.5,1.1-0.8,2.3-0.8,3.6c0,1.3,0.3,2.6,0.8,3.6
				c0.5,1.1,1.2,1.9,2.2,2.5c0.9,0.6,2,0.9,3.2,0.9c1.2,0,2.3-0.3,3.2-0.9c0.9-0.6,1.6-1.5,2.2-2.5c0.5-1.1,0.8-2.3,0.8-3.6
				c0-1.3-0.3-2.6-0.8-3.6s-1.2-1.9-2.2-2.5C367.4,80.2,366.3,79.9,365.1,79.9z"/>
		</g>
		<linearGradient id="SVGID_3_" gradientUnits="userSpaceOnUse" x1="347.0452" y1="36.75" x2="347.0452" y2="99.5717">
			<stop  offset="1.019973e-008" style="stop-color:#FFFFFF;stop-opacity:0.6"/>
			<stop  offset="1" style="stop-color:#FFFFFF;stop-opacity:0"/>
		</linearGradient>
		<path fill="url(#SVGID_3_)" d="M358.4,114.7c-0.7,0-1.3-0.4-1.6-1.1l-13.5-31L337.5,96c-0.2,0.4-0.4,0.7-0.7,0.9
			c-0.3,0.2-0.6,0.3-1,0.3c-0.5,0-1-0.2-1.3-0.5c-0.3-0.3-0.5-0.7-0.5-1.1c0-0.3,0.1-0.6,0.2-1l7.2-16.4c0.2-0.4,0.4-0.7,0.8-0.9
			c0.3-0.2,0.7-0.3,1.1-0.2c0.3,0,0.6,0.1,0.9,0.3c0.3,0.2,0.5,0.5,0.6,0.8l15,34.1c0.2,0.4,0.3,0.7,0.3,1c0,0.4-0.2,0.8-0.5,1.1
			C359.3,114.6,358.9,114.7,358.4,114.7z"/>
	</g>
	
		<text transform="matrix(1 0 0 1 311.207 76.7316)" display="inline" fill="#FFFFFF" font-family="'Quicksand-Medium'" font-size="38.063">eva</text>
	<text transform="matrix(1 0 0 1 208.5542 88.2959)" display="inline" fill="#00AEEF" font-family="'Biko'" font-size="44.0647">e</text>
	<g display="inline">
		<path fill="#00AEEF" d="M270.7,69.1h3.8v20.2h-3.8V87c-1.9,1.6-4.3,2.8-6.8,2.8c-2.8,0-5.5-1.1-7.5-3c-2-2-3.1-4.7-3.1-7.5
			s1.1-5.5,3.1-7.5c2-2,4.7-3,7.5-3c2.5,0,4.9,1.2,6.8,2.8V69.1z M270.7,79.2c0-3.7-3-6.8-6.8-6.8s-6.8,3.1-6.8,6.8s3,6.8,6.8,6.8
			S270.7,83,270.7,79.2z"/>
	</g>
	<polygon display="inline" fill="#FFFFFF" points="228.4,69.2 232.8,60.5 241.6,78.7 264.2,36 273.1,36 243.7,92.4 239.5,92.5 	"/>
	<polygon display="inline" fill="#00AEEF" points="240.7,90.1 230.6,69.2 232.8,65 241.5,82.7 265.4,37 269.8,37 242.4,90 	"/>
	<linearGradient id="SVGID_4_" gradientUnits="userSpaceOnUse" x1="442" y1="119.3333" x2="442" y2="34.9532">
		<stop  offset="0" style="stop-color:#00BAFF"/>
		<stop  offset="1" style="stop-color:#00BAFF;stop-opacity:0.3"/>
	</linearGradient>
	<rect x="399" y="20" display="inline" fill="url(#SVGID_4_)" width="86" height="80"/>
	
		<text transform="matrix(1 0 0 1 409.2065 93.7166)" display="inline" fill="#FFFFFF" font-family="'Quicksand-Medium'" font-size="38.063">eva</text>
	<path display="inline" fill="#FFFFFF" d="M457.6,56.4c0.3,0.3,0.5,0.7,0.5,1.1c0,0.2-0.1,0.5-0.3,1l-15,34.1
		c-0.2,0.3-0.4,0.6-0.6,0.8c-0.3,0.2-0.6,0.3-0.9,0.3c-0.4,0.1-0.8,0-1.1-0.2c-0.3-0.2-0.6-0.5-0.8-0.9l-7.2-16.4
		c-0.1-0.4-0.2-0.7-0.2-1c0-0.4,0.2-0.8,0.5-1.1c0.3-0.3,0.8-0.5,1.3-0.5c0.4,0,0.7,0.1,1,0.3c0.3,0.2,0.5,0.5,0.7,0.9l5.7,13.4
		l13.5-31c0.4-0.8,0.9-1.1,1.6-1.1C456.9,55.9,457.3,56.1,457.6,56.4z"/>
	<rect x="16" y="123" display="inline" fill="#8DC63F" width="86" height="80"/>
	
		<text transform="matrix(1 0 0 1 26.0001 193.4045)" display="inline" fill="#FFFFFF" font-family="'Quicksand-Bold'" font-size="38.063">e  a</text>
	<text transform="matrix(1 0 0 1 127.5542 187.2962)" display="inline" font-family="'Biko'" font-size="44.0647">e</text>
	<g display="inline">
		<path d="M189.7,168.1h3.8v20.2h-3.8V186c-1.9,1.6-4.3,2.8-6.8,2.8c-2.8,0-5.5-1.1-7.5-3c-2-2-3.1-4.7-3.1-7.5s1.1-5.5,3.1-7.5
			c2-2,4.7-3,7.5-3c2.5,0,4.9,1.2,6.8,2.8V168.1z M189.7,178.2c0-3.7-3-6.8-6.8-6.8s-6.8,3.1-6.8,6.8s3,6.8,6.8,6.8
			S189.7,182,189.7,178.2z"/>
	</g>
	<rect x="118.5" y="152.5" display="inline" fill="none" stroke="#000000" stroke-miterlimit="10" width="86" height="40"/>
	<polygon display="inline" fill="#FFFFFF" points="147.4,168.2 151.8,159.5 160.6,177.7 183.2,135 192.1,135 162.7,191.4 
		158.5,191.5 	"/>
	<polygon display="inline" fill="#00AEEF" points="159.7,189.1 149.6,168.2 151.8,164 160.5,181.7 184.4,136 188.8,136 161.4,189 	
		"/>
	<path display="inline" fill="#D7FF99" d="M77.1,152.3c0.4,0.4,0.6,0.9,0.6,1.5c0,0.3-0.1,0.7-0.3,1.1L60.7,192
		c-0.2,0.4-0.4,0.8-0.8,1c-0.3,0.3-0.7,0.4-1.2,0.4l-0.3,0c-0.4,0-0.8-0.1-1.2-0.4c-0.4-0.3-0.7-0.6-0.9-1.1l-7.1-15.7
		c-0.2-0.4-0.3-0.8-0.3-1.2c0-0.5,0.2-1,0.6-1.4c0.4-0.4,1-0.6,1.6-0.6c0.5,0,0.9,0.1,1.3,0.4c0.4,0.3,0.7,0.6,0.9,1.1l5.3,12
		l14.8-33.4c0.2-0.5,0.5-0.8,0.8-1.1c0.4-0.3,0.7-0.4,1.2-0.3C76.2,151.7,76.7,151.9,77.1,152.3z"/>
	<rect x="415" y="158" display="inline" fill="#BAF4FF" width="86" height="40"/>
	<g display="inline">
		<text transform="matrix(1 0 0 1 425.0001 188.4045)" font-family="'Quicksand-Bold'" font-size="38.063">e  a</text>
	</g>
	<path display="inline" fill="#8DC63F" d="M476.1,147.3c0.4,0.4,0.6,0.9,0.6,1.5c0,0.3-0.1,0.7-0.3,1.1L459.7,187
		c-0.2,0.4-0.4,0.8-0.8,1c-0.3,0.3-0.7,0.4-1.2,0.4l-0.3,0c-0.4,0-0.8-0.1-1.2-0.4c-0.4-0.3-0.7-0.6-0.9-1.1l-7.1-15.7
		c-0.2-0.4-0.3-0.8-0.3-1.2c0-0.5,0.2-1,0.6-1.4c0.4-0.4,1-0.6,1.6-0.6c0.5,0,0.9,0.1,1.3,0.4c0.4,0.3,0.7,0.6,0.9,1.1l5.3,12
		l14.8-33.4c0.2-0.5,0.5-0.8,0.8-1.1c0.4-0.3,0.7-0.4,1.2-0.3C475.2,146.7,475.7,146.9,476.1,147.3z"/>
	<path display="inline" fill="#8DC63F" d="M472.8,158l3.7-8.1c0.2-0.5,0.3-0.8,0.3-1.1c0-0.6-0.2-1.1-0.6-1.5
		c-0.4-0.4-0.9-0.6-1.5-0.6c-0.4,0-0.8,0.1-1.2,0.3c-0.4,0.3-0.6,0.6-0.8,1.1l-4.4,9.9H472.8z"/>
	<rect x="220.5" y="156.5" display="inline" fill="none" stroke="#00AEEF" stroke-miterlimit="10" width="86" height="40"/>
	<text transform="matrix(1 0 0 1 230.5542 190.2962)" display="inline" fill="#8DC63F" font-family="'Biko'" font-size="44.0647">e</text>
	<g display="inline">
		<path fill="#8DC63F" d="M292.7,171.1h3.8v20.2h-3.8V189c-1.9,1.6-4.3,2.8-6.8,2.8c-2.8,0-5.5-1.1-7.5-3c-2-2-3.1-4.7-3.1-7.5
			s1.1-5.5,3.1-7.5c2-2,4.7-3,7.5-3c2.5,0,4.9,1.2,6.8,2.8V171.1z M292.7,181.2c0-3.7-3-6.8-6.8-6.8s-6.8,3.1-6.8,6.8s3,6.8,6.8,6.8
			S292.7,185,292.7,181.2z"/>
	</g>
	<polygon display="inline" fill="#FFFFFF" points="250.4,171.2 254.8,162.5 263.6,180.7 286.2,138 295.1,138 265.7,194.4 
		261.5,194.5 	"/>
	<polygon display="inline" fill="#00AEEF" points="262.7,192.1 252.6,171.2 254.8,167 263.5,184.7 287.4,139 291.8,139 264.4,192 	
		"/>
	<path display="inline" fill="none" stroke="#00AEEF" stroke-miterlimit="10" d="M566.7,308.5h-75.3c-2.9,0-5.3-2.4-5.3-5.3v-29.3
		c0-2.9,2.4-5.3,5.3-5.3h75.3c2.9,0,5.3,2.4,5.3,5.3v29.3C572,306.1,569.6,308.5,566.7,308.5z"/>
	
		<text transform="matrix(1 0 0 1 496.0001 301.9382)" display="inline" fill="#00AEEF" font-family="'Quicksand-Bold'" font-size="38.063">e  a</text>
	<g display="inline">
		<g>
			<path fill="#D92EBA" d="M528.4,303.4c-0.8,0-1.5-0.2-2.1-0.7c-0.6-0.4-1-1-1.3-1.7l-7.1-15.7c-0.3-0.6-0.4-1.2-0.4-1.8
				c0-0.6,0.2-1.6,1.1-2.5c0.7-0.7,1.6-1.1,2.6-1.1c0.8,0,1.5,0.2,2.1,0.6c0.7,0.4,1.2,1,1.5,1.7l3.9,8.9l13.4-30.3
				c0.3-0.7,0.8-1.3,1.3-1.7c0.6-0.4,1.2-0.6,1.9-0.6c0.1,0,0.2,0,0.2,0c0.9,0,1.8,0.3,2.5,1c0.7,0.7,1.1,1.6,1.1,2.5
				c0,0.5-0.1,1.1-0.4,1.8l-16.7,37.1c-0.3,0.6-0.7,1.2-1.3,1.6c-0.6,0.4-1.2,0.7-2,0.7L528.4,303.4L528.4,303.4z"/>
		</g>
		<g>
			<path fill="#FFFFFF" d="M545.5,260.2c0,0,0.1,0,0.1,0c0.6,0,1.1,0.2,1.5,0.6c0.4,0.4,0.6,0.9,0.6,1.5c0,0.3-0.1,0.7-0.3,1.1
				l-16.7,37.1c-0.2,0.4-0.4,0.8-0.8,1c-0.3,0.3-0.7,0.4-1.2,0.4l-0.3,0c-0.4,0-0.8-0.1-1.2-0.4c-0.4-0.3-0.7-0.6-0.9-1.1l-7.1-15.7
				c-0.2-0.4-0.3-0.8-0.3-1.2c0-0.5,0.2-1,0.6-1.4c0.4-0.4,1-0.6,1.6-0.6c0.5,0,0.9,0.1,1.3,0.4c0.4,0.3,0.7,0.6,0.9,1.1l5.3,12
				l14.8-33.4c0.2-0.5,0.5-0.8,0.8-1.1C544.7,260.3,545.1,260.2,545.5,260.2 M545.5,257.2L545.5,257.2c-1,0-2,0.3-2.8,0.9
				c-0.8,0.6-1.4,1.4-1.8,2.3l-12,27.1l-2.5-5.8c-0.5-1-1.2-1.8-2.1-2.4c-0.9-0.6-1.9-0.8-2.9-0.8c-1.4,0-2.7,0.5-3.7,1.5
				c-1.3,1.3-1.6,2.6-1.6,3.5c0,0.8,0.2,1.6,0.5,2.4l7.1,15.7c0.4,0.9,1,1.7,1.8,2.3c0.9,0.6,1.9,1,3,1h0.2l0.2,0l0.3,0
				c1-0.1,1.9-0.4,2.7-1c0.8-0.6,1.4-1.3,1.7-2.2l16.7-37c0.4-0.9,0.6-1.6,0.6-2.4c0-1.4-0.5-2.7-1.5-3.6c-1-0.9-2.2-1.4-3.5-1.4
				C545.6,257.2,545.5,257.2,545.5,257.2L545.5,257.2z"/>
		</g>
	</g>
	<path display="inline" fill="none" stroke="#00AEEF" stroke-miterlimit="10" d="M566.7,369.7h-75.3c-2.9,0-5.3-2.4-5.3-5.3v-29.3
		c0-2.9,2.4-5.3,5.3-5.3h75.3c2.9,0,5.3,2.4,5.3,5.3v29.3C572,367.4,569.6,369.7,566.7,369.7z"/>
	<g display="inline">
		<text transform="matrix(1 0 0 1 496.0003 363.1882)" fill="#00AEEF" font-family="'Quicksand-Bold'" font-size="38.063">e  a</text>
	</g>
	<g display="inline">
		<g>
			<path fill="#FFA200" d="M528.4,364.7c-0.8,0-1.5-0.2-2.1-0.7c-0.6-0.4-1-1-1.3-1.7l-7.1-15.7c-0.3-0.6-0.4-1.2-0.4-1.8
				c0-0.6,0.2-1.6,1.1-2.5c0.7-0.7,1.6-1.1,2.6-1.1c0.8,0,1.5,0.2,2.1,0.6c0.7,0.4,1.2,1,1.5,1.7l3.9,8.9l13.4-30.3
				c0.3-0.7,0.8-1.3,1.3-1.7c0.6-0.4,1.2-0.6,1.9-0.6c0.1,0,0.2,0,0.2,0c0.9,0,1.8,0.3,2.5,1c0.7,0.7,1.1,1.6,1.1,2.5
				c0,0.5-0.1,1.1-0.4,1.8l-16.7,37.1c-0.3,0.6-0.7,1.2-1.3,1.6c-0.6,0.4-1.2,0.7-2,0.7L528.4,364.7L528.4,364.7z"/>
		</g>
		<g>
			<path fill="#FFFFFF" d="M545.5,321.4c0,0,0.1,0,0.1,0c0.6,0,1.1,0.2,1.5,0.6c0.4,0.4,0.6,0.9,0.6,1.5c0,0.3-0.1,0.7-0.3,1.1
				l-16.7,37.1c-0.2,0.4-0.4,0.8-0.8,1c-0.3,0.3-0.7,0.4-1.2,0.4l-0.3,0c-0.4,0-0.8-0.1-1.2-0.4c-0.4-0.3-0.7-0.6-0.9-1.1l-7.1-15.7
				c-0.2-0.4-0.3-0.8-0.3-1.2c0-0.5,0.2-1,0.6-1.4c0.4-0.4,1-0.6,1.6-0.6c0.5,0,0.9,0.1,1.3,0.4c0.4,0.3,0.7,0.6,0.9,1.1l5.3,12
				l14.8-33.4c0.2-0.5,0.5-0.8,0.8-1.1C544.7,321.5,545.1,321.4,545.5,321.4 M545.5,318.4L545.5,318.4c-1,0-2,0.3-2.8,0.9
				c-0.8,0.6-1.4,1.4-1.8,2.3l-12,27.1l-2.5-5.8c-0.5-1-1.2-1.8-2.1-2.4c-0.9-0.6-1.9-0.8-2.9-0.8c-1.4,0-2.7,0.5-3.7,1.5
				c-1.3,1.3-1.6,2.6-1.6,3.5c0,0.8,0.2,1.6,0.5,2.4l7.1,15.7c0.4,0.9,1,1.7,1.8,2.3c0.9,0.6,1.9,1,3,1h0.2l0.2,0l0.3,0
				c1-0.1,1.9-0.4,2.7-1c0.8-0.6,1.4-1.3,1.7-2.2l16.7-37c0.4-0.9,0.6-1.6,0.6-2.4c0-1.4-0.5-2.7-1.5-3.6c-1-0.9-2.2-1.4-3.5-1.4
				C545.6,318.4,545.5,318.4,545.5,318.4L545.5,318.4z"/>
		</g>
	</g>
	<path display="inline" fill="none" stroke="#00AEEF" stroke-miterlimit="10" d="M566.7,431.5h-75.3c-2.9,0-5.3-2.4-5.3-5.3v-29.3
		c0-2.9,2.4-5.3,5.3-5.3h75.3c2.9,0,5.3,2.4,5.3,5.3v29.3C572,429.1,569.6,431.5,566.7,431.5z"/>
	<g display="inline">
		<text transform="matrix(1 0 0 1 496.0003 424.9111)" fill="#00AEEF" font-family="'Quicksand-Bold'" font-size="38.063">e  a</text>
	</g>
	<g display="inline">
		<g>
			<path fill="#8DC63F" d="M528.4,426.4c-0.8,0-1.5-0.2-2.1-0.7c-0.6-0.4-1-1-1.3-1.7l-7.1-15.7c-0.3-0.6-0.4-1.2-0.4-1.8
				c0-0.6,0.2-1.6,1.1-2.5c0.7-0.7,1.6-1.1,2.6-1.1c0.8,0,1.5,0.2,2.1,0.6c0.7,0.4,1.2,1,1.5,1.7l3.9,8.9l13.4-30.3
				c0.3-0.7,0.8-1.3,1.3-1.7c0.6-0.4,1.2-0.6,1.9-0.6c0.1,0,0.2,0,0.2,0c0.9,0,1.8,0.3,2.5,1c0.7,0.7,1.1,1.6,1.1,2.5
				c0,0.5-0.1,1.1-0.4,1.8L532.1,424c-0.3,0.6-0.7,1.2-1.3,1.6c-0.6,0.4-1.2,0.7-2,0.7L528.4,426.4L528.4,426.4z"/>
		</g>
		<g>
			<path fill="#FFFFFF" d="M545.5,383.1c0,0,0.1,0,0.1,0c0.6,0,1.1,0.2,1.5,0.6c0.4,0.4,0.6,0.9,0.6,1.5c0,0.3-0.1,0.7-0.3,1.1
				l-16.7,37.1c-0.2,0.4-0.4,0.8-0.8,1c-0.3,0.3-0.7,0.4-1.2,0.4l-0.3,0c-0.4,0-0.8-0.1-1.2-0.4c-0.4-0.3-0.7-0.6-0.9-1.1l-7.1-15.7
				c-0.2-0.4-0.3-0.8-0.3-1.2c0-0.5,0.2-1,0.6-1.4c0.4-0.4,1-0.6,1.6-0.6c0.5,0,0.9,0.1,1.3,0.4c0.4,0.3,0.7,0.6,0.9,1.1l5.3,12
				l14.8-33.4c0.2-0.5,0.5-0.8,0.8-1.1C544.7,383.3,545.1,383.1,545.5,383.1 M545.5,380.1L545.5,380.1c-1,0-2,0.3-2.8,0.9
				c-0.8,0.6-1.4,1.4-1.8,2.3l-12,27.1l-2.5-5.8c-0.5-1-1.2-1.8-2.1-2.4c-0.9-0.6-1.9-0.8-2.9-0.8c-1.4,0-2.7,0.5-3.7,1.5
				c-1.3,1.3-1.6,2.6-1.6,3.5c0,0.8,0.2,1.6,0.5,2.4l7.1,15.7c0.4,0.9,1,1.7,1.8,2.3c0.9,0.6,1.9,1,3,1h0.2l0.2,0l0.3,0
				c1-0.1,1.9-0.4,2.7-1c0.8-0.6,1.4-1.3,1.7-2.2l16.7-37c0.4-0.9,0.6-1.6,0.6-2.4c0-1.4-0.5-2.7-1.5-3.6c-1-0.9-2.2-1.4-3.5-1.4
				C545.6,380.1,545.5,380.1,545.5,380.1L545.5,380.1z"/>
		</g>
	</g>
	<path display="inline" fill="none" stroke="#00AEEF" stroke-miterlimit="10" d="M569.7,486.3h-75.3c-2.9,0-5.3-2.4-5.3-5.3v-29.3
		c0-2.9,2.4-5.3,5.3-5.3h75.3c2.9,0,5.3,2.4,5.3,5.3V481C575,483.9,572.6,486.3,569.7,486.3z"/>
	
		<text transform="matrix(1 0 0 1 498.9995 479.7673)" display="inline" fill="#00AEEF" font-family="'Quicksand-Bold'" font-size="38.063">e  a</text>
	<g display="inline">
		<g>
			<path fill="#0042DB" d="M531.4,481.3c-0.8,0-1.5-0.2-2.1-0.7c-0.6-0.4-1-1-1.3-1.7l-7.1-15.7c-0.3-0.6-0.4-1.2-0.4-1.8
				c0-0.6,0.2-1.6,1.1-2.5c0.7-0.7,1.6-1.1,2.6-1.1c0.8,0,1.5,0.2,2.1,0.6c0.7,0.4,1.2,1,1.5,1.7l3.9,8.9l13.4-30.3
				c0.3-0.7,0.8-1.3,1.3-1.7c0.6-0.4,1.2-0.6,1.9-0.6c0.1,0,0.2,0,0.2,0c0.9,0,1.8,0.3,2.5,1c0.7,0.7,1.1,1.6,1.1,2.5
				c0,0.5-0.1,1.1-0.4,1.8l-16.7,37.1c-0.3,0.6-0.7,1.2-1.3,1.6c-0.6,0.4-1.2,0.7-2,0.7L531.4,481.3L531.4,481.3z"/>
		</g>
		<g>
			<path fill="#FFFFFF" d="M548.5,438c0,0,0.1,0,0.1,0c0.6,0,1.1,0.2,1.5,0.6c0.4,0.4,0.6,0.9,0.6,1.5c0,0.3-0.1,0.7-0.3,1.1
				l-16.7,37.1c-0.2,0.4-0.4,0.8-0.8,1c-0.3,0.3-0.7,0.4-1.2,0.4l-0.3,0c-0.4,0-0.8-0.1-1.2-0.4c-0.4-0.3-0.7-0.6-0.9-1.1l-7.1-15.7
				c-0.2-0.4-0.3-0.8-0.3-1.2c0-0.5,0.2-1,0.6-1.4c0.4-0.4,1-0.6,1.6-0.6c0.5,0,0.9,0.1,1.3,0.4c0.4,0.3,0.7,0.6,0.9,1.1l5.3,12
				l14.8-33.4c0.2-0.5,0.5-0.8,0.8-1.1C547.7,438.1,548.1,438,548.5,438 M548.5,435L548.5,435c-1,0-2,0.3-2.8,0.9
				c-0.8,0.6-1.4,1.4-1.8,2.3l-12,27.1l-2.5-5.8c-0.5-1-1.2-1.8-2.1-2.4c-0.9-0.6-1.9-0.8-2.9-0.8c-1.4,0-2.7,0.5-3.7,1.5
				c-1.3,1.3-1.6,2.6-1.6,3.5c0,0.8,0.2,1.6,0.5,2.4l7.1,15.7c0.4,0.9,1,1.7,1.8,2.3c0.9,0.6,1.9,1,3,1h0.2l0.2,0l0.3,0
				c1-0.1,1.9-0.4,2.7-1c0.8-0.6,1.4-1.3,1.7-2.2l16.7-37c0.4-0.9,0.6-1.6,0.6-2.4c0-1.4-0.5-2.7-1.5-3.6c-1-0.9-2.2-1.4-3.5-1.4
				C548.6,435,548.5,435,548.5,435L548.5,435z"/>
		</g>
	</g>
	<path display="inline" fill="none" stroke="#D92EBA" stroke-miterlimit="10" d="M455.4,309.4H380c-2.9,0-5.3-2.4-5.3-5.3v-29.3
		c0-2.9,2.4-5.3,5.3-5.3h75.3c2.9,0,5.3,2.4,5.3,5.3v29.3C460.7,307,458.3,309.4,455.4,309.4z"/>
	
		<text transform="matrix(1 0 0 1 384.7066 302.8511)" display="inline" fill="#00AEEF" font-family="'Quicksand-Bold'" font-size="38.063">e  a</text>
	<g display="inline">
		<g>
			<path fill="#00AEEF" d="M417.1,304.4c-0.8,0-1.5-0.2-2.1-0.7c-0.6-0.4-1-1-1.3-1.7l-7.1-15.7c-0.3-0.6-0.4-1.2-0.4-1.8
				c0-0.6,0.2-1.6,1.1-2.5c0.7-0.7,1.6-1.1,2.6-1.1c0.8,0,1.5,0.2,2.1,0.6c0.7,0.4,1.2,1,1.5,1.7l3.9,8.9l13.4-30.3
				c0.3-0.7,0.8-1.3,1.3-1.7c0.6-0.4,1.2-0.6,1.9-0.6c0.1,0,0.2,0,0.2,0c0.9,0,1.8,0.3,2.5,1c0.7,0.7,1.1,1.6,1.1,2.5
				c0,0.5-0.1,1.1-0.4,1.8L420.8,302c-0.3,0.6-0.7,1.2-1.3,1.6c-0.6,0.4-1.2,0.7-2,0.7L417.1,304.4L417.1,304.4z"/>
		</g>
		<g>
			<path fill="#FFFFFF" d="M434.2,261.1c0,0,0.1,0,0.1,0c0.6,0,1.1,0.2,1.5,0.6c0.4,0.4,0.6,0.9,0.6,1.5c0,0.3-0.1,0.7-0.3,1.1
				l-16.7,37.1c-0.2,0.4-0.4,0.8-0.8,1c-0.3,0.3-0.7,0.4-1.2,0.4l-0.3,0c-0.4,0-0.8-0.1-1.2-0.4c-0.4-0.3-0.7-0.6-0.9-1.1l-7.1-15.7
				c-0.2-0.4-0.3-0.8-0.3-1.2c0-0.5,0.2-1,0.6-1.4c0.4-0.4,1-0.6,1.6-0.6c0.5,0,0.9,0.1,1.3,0.4c0.4,0.3,0.7,0.6,0.9,1.1l5.3,12
				l14.8-33.4c0.2-0.5,0.5-0.8,0.8-1.1C433.4,261.2,433.8,261.1,434.2,261.1 M434.2,258.1L434.2,258.1c-1,0-2,0.3-2.8,0.9
				c-0.8,0.6-1.4,1.4-1.8,2.3l-12,27.1l-2.5-5.8c-0.5-1-1.2-1.8-2.1-2.4c-0.9-0.6-1.9-0.8-2.9-0.8c-1.4,0-2.7,0.5-3.7,1.5
				c-1.3,1.3-1.6,2.6-1.6,3.5c0,0.8,0.2,1.6,0.5,2.4l7.1,15.7c0.4,0.9,1,1.7,1.8,2.3c0.9,0.6,1.9,1,3,1h0.2l0.2,0l0.3,0
				c1-0.1,1.9-0.4,2.7-1c0.8-0.6,1.4-1.3,1.7-2.2l16.7-37c0.4-0.9,0.6-1.6,0.6-2.4c0-1.4-0.5-2.7-1.5-3.6c-1-0.9-2.2-1.4-3.5-1.4
				C434.3,258.1,434.2,258.1,434.2,258.1L434.2,258.1z"/>
		</g>
	</g>
	<path display="inline" fill="#FFFFFF" stroke="#FFA200" stroke-miterlimit="10" d="M455.4,370.7H380c-2.9,0-5.3-2.4-5.3-5.3V336
		c0-2.9,2.4-5.3,5.3-5.3h75.3c2.9,0,5.3,2.4,5.3,5.3v29.3C460.7,368.3,458.3,370.7,455.4,370.7z"/>
	<g display="inline">
		<text transform="matrix(1 0 0 1 384.7068 364.1011)" fill="#00AEEF" font-family="'Quicksand-Bold'" font-size="38.063">e  a</text>
	</g>
	<g display="inline">
		<g>
			<path fill="#00AEEF" d="M417.1,365.6c-0.8,0-1.5-0.2-2.1-0.7c-0.6-0.4-1-1-1.3-1.7l-7.1-15.7c-0.3-0.6-0.4-1.2-0.4-1.8
				c0-0.6,0.2-1.6,1.1-2.5c0.7-0.7,1.6-1.1,2.6-1.1c0.8,0,1.5,0.2,2.1,0.6c0.7,0.4,1.2,1,1.5,1.7l3.9,8.9l13.4-30.3
				c0.3-0.7,0.8-1.3,1.3-1.7c0.6-0.4,1.2-0.6,1.9-0.6c0.1,0,0.2,0,0.2,0c0.9,0,1.8,0.3,2.5,1c0.7,0.7,1.1,1.6,1.1,2.5
				c0,0.5-0.1,1.1-0.4,1.8l-16.7,37.1c-0.3,0.6-0.7,1.2-1.3,1.6c-0.6,0.4-1.2,0.7-2,0.7L417.1,365.6L417.1,365.6z"/>
		</g>
		<g>
			<path fill="#FFFFFF" d="M434.2,322.3c0,0,0.1,0,0.1,0c0.6,0,1.1,0.2,1.5,0.6c0.4,0.4,0.6,0.9,0.6,1.5c0,0.3-0.1,0.7-0.3,1.1
				l-16.7,37.1c-0.2,0.4-0.4,0.8-0.8,1c-0.3,0.3-0.7,0.4-1.2,0.4l-0.3,0c-0.4,0-0.8-0.1-1.2-0.4c-0.4-0.3-0.7-0.6-0.9-1.1l-7.1-15.7
				c-0.2-0.4-0.3-0.8-0.3-1.2c0-0.5,0.2-1,0.6-1.4c0.4-0.4,1-0.6,1.6-0.6c0.5,0,0.9,0.1,1.3,0.4c0.4,0.3,0.7,0.6,0.9,1.1l5.3,12
				l14.8-33.4c0.2-0.5,0.5-0.8,0.8-1.1C433.4,322.4,433.8,322.3,434.2,322.3 M434.2,319.3L434.2,319.3c-1,0-2,0.3-2.8,0.9
				c-0.8,0.6-1.4,1.4-1.8,2.3l-12,27.1l-2.5-5.8c-0.5-1-1.2-1.8-2.1-2.4c-0.9-0.6-1.9-0.8-2.9-0.8c-1.4,0-2.7,0.5-3.7,1.5
				c-1.3,1.3-1.6,2.6-1.6,3.5c0,0.8,0.2,1.6,0.5,2.4l7.1,15.7c0.4,0.9,1,1.7,1.8,2.3c0.9,0.6,1.9,1,3,1h0.2l0.2,0l0.3,0
				c1-0.1,1.9-0.4,2.7-1c0.8-0.6,1.4-1.3,1.7-2.2l16.7-37c0.4-0.9,0.6-1.6,0.6-2.4c0-1.4-0.5-2.7-1.5-3.6c-1-0.9-2.2-1.4-3.5-1.4
				C434.3,319.3,434.2,319.3,434.2,319.3L434.2,319.3z"/>
		</g>
	</g>
	<path display="inline" fill="none" stroke="#8DC63F" stroke-miterlimit="10" d="M455.4,432.4H380c-2.9,0-5.3-2.4-5.3-5.3v-29.3
		c0-2.9,2.4-5.3,5.3-5.3h75.3c2.9,0,5.3,2.4,5.3,5.3V427C460.7,430,458.3,432.4,455.4,432.4z"/>
	<g display="inline">
		<text transform="matrix(1 0 0 1 384.7068 425.824)" fill="#00AEEF" font-family="'Quicksand-Bold'" font-size="38.063">e  a</text>
	</g>
	<g display="inline">
		<g>
			<path fill="#00AEEF" d="M417.1,427.3c-0.8,0-1.5-0.2-2.1-0.7c-0.6-0.4-1-1-1.3-1.7l-7.1-15.7c-0.3-0.6-0.4-1.2-0.4-1.8
				c0-0.6,0.2-1.6,1.1-2.5c0.7-0.7,1.6-1.1,2.6-1.1c0.8,0,1.5,0.2,2.1,0.6c0.7,0.4,1.2,1,1.5,1.7l3.9,8.9l13.4-30.3
				c0.3-0.7,0.8-1.3,1.3-1.7c0.6-0.4,1.2-0.6,1.9-0.6c0.1,0,0.2,0,0.2,0c0.9,0,1.8,0.3,2.5,1c0.7,0.7,1.1,1.6,1.1,2.5
				c0,0.5-0.1,1.1-0.4,1.8L420.8,425c-0.3,0.6-0.7,1.2-1.3,1.6c-0.6,0.4-1.2,0.7-2,0.7L417.1,427.3L417.1,427.3z"/>
		</g>
		<g>
			<path fill="#FFFFFF" d="M434.2,384.1c0,0,0.1,0,0.1,0c0.6,0,1.1,0.2,1.5,0.6c0.4,0.4,0.6,0.9,0.6,1.5c0,0.3-0.1,0.7-0.3,1.1
				l-16.7,37.1c-0.2,0.4-0.4,0.8-0.8,1c-0.3,0.3-0.7,0.4-1.2,0.4l-0.3,0c-0.4,0-0.8-0.1-1.2-0.4c-0.4-0.3-0.7-0.6-0.9-1.1l-7.1-15.7
				c-0.2-0.4-0.3-0.8-0.3-1.2c0-0.5,0.2-1,0.6-1.4c0.4-0.4,1-0.6,1.6-0.6c0.5,0,0.9,0.1,1.3,0.4c0.4,0.3,0.7,0.6,0.9,1.1l5.3,12
				l14.8-33.4c0.2-0.5,0.5-0.8,0.8-1.1C433.4,384.2,433.8,384.1,434.2,384.1 M434.2,381.1L434.2,381.1c-1,0-2,0.3-2.8,0.9
				c-0.8,0.6-1.4,1.4-1.8,2.3l-12,27.1l-2.5-5.8c-0.5-1-1.2-1.8-2.1-2.4c-0.9-0.6-1.9-0.8-2.9-0.8c-1.4,0-2.7,0.5-3.7,1.5
				c-1.3,1.3-1.6,2.6-1.6,3.5c0,0.8,0.2,1.6,0.5,2.4l7.1,15.7c0.4,0.9,1,1.7,1.8,2.3c0.9,0.6,1.9,1,3,1h0.2l0.2,0l0.3,0
				c1-0.1,1.9-0.4,2.7-1c0.8-0.6,1.4-1.3,1.7-2.2l16.7-37c0.4-0.9,0.6-1.6,0.6-2.4c0-1.4-0.5-2.7-1.5-3.6c-1-0.9-2.2-1.4-3.5-1.4
				C434.3,381.1,434.2,381.1,434.2,381.1L434.2,381.1z"/>
		</g>
	</g>
	<path display="inline" fill="#FFFFFF" stroke="#0042DB" stroke-miterlimit="10" d="M457.7,488.8h-75.3c-2.9,0-5.3-2.4-5.3-5.3
		v-29.3c0-2.9,2.4-5.3,5.3-5.3h75.3c2.9,0,5.3,2.4,5.3,5.3v29.3C463.1,486.4,460.7,488.8,457.7,488.8z"/>
	<g display="inline">
		<text transform="matrix(1 0 0 1 387.078 482.2493)" fill="#00AEEF" font-family="'Quicksand-Bold'" font-size="38.063">e  a</text>
	</g>
	<g display="inline">
		<g>
			<path fill="#00AEEF" d="M419.5,483.7c-0.8,0-1.5-0.2-2.1-0.7c-0.6-0.4-1-1-1.3-1.7l-7.1-15.7c-0.3-0.6-0.4-1.2-0.4-1.8
				c0-0.6,0.2-1.6,1.1-2.5c0.7-0.7,1.6-1.1,2.6-1.1c0.8,0,1.5,0.2,2.1,0.6c0.7,0.4,1.2,1,1.5,1.7l3.9,8.9l13.4-30.3
				c0.3-0.7,0.8-1.3,1.3-1.7c0.6-0.4,1.2-0.6,1.9-0.6c0.1,0,0.2,0,0.2,0c0.9,0,1.8,0.3,2.5,1c0.7,0.7,1.1,1.6,1.1,2.5
				c0,0.5-0.1,1.1-0.4,1.8l-16.7,37.1c-0.3,0.6-0.7,1.2-1.3,1.6c-0.6,0.4-1.2,0.7-2,0.7L419.5,483.7L419.5,483.7z"/>
		</g>
		<g>
			<path fill="#FFFFFF" d="M436.5,440.5c0,0,0.1,0,0.1,0c0.6,0,1.1,0.2,1.5,0.6c0.4,0.4,0.6,0.9,0.6,1.5c0,0.3-0.1,0.7-0.3,1.1
				l-16.7,37.1c-0.2,0.4-0.4,0.8-0.8,1c-0.3,0.3-0.7,0.4-1.2,0.4l-0.3,0c-0.4,0-0.8-0.1-1.2-0.4c-0.4-0.3-0.7-0.6-0.9-1.1l-7.1-15.7
				c-0.2-0.4-0.3-0.8-0.3-1.2c0-0.5,0.2-1,0.6-1.4c0.4-0.4,1-0.6,1.6-0.6c0.5,0,0.9,0.1,1.3,0.4c0.4,0.3,0.7,0.6,0.9,1.1l5.3,12
				l14.8-33.4c0.2-0.5,0.5-0.8,0.8-1.1C435.8,440.6,436.2,440.5,436.5,440.5 M436.5,437.5L436.5,437.5c-1,0-2,0.3-2.8,0.9
				c-0.8,0.6-1.4,1.4-1.8,2.3l-12,27.1l-2.5-5.8c-0.5-1-1.2-1.8-2.1-2.4c-0.9-0.6-1.9-0.8-2.9-0.8c-1.4,0-2.7,0.5-3.7,1.5
				c-1.3,1.3-1.6,2.6-1.6,3.5c0,0.8,0.2,1.6,0.5,2.4l7.1,15.7c0.4,0.9,1,1.7,1.8,2.3c0.9,0.6,1.9,1,3,1h0.2l0.2,0l0.3,0
				c1-0.1,1.9-0.4,2.7-1c0.8-0.6,1.4-1.3,1.7-2.2l16.7-37c0.4-0.9,0.6-1.6,0.6-2.4c0-1.4-0.5-2.7-1.5-3.6c-1-0.9-2.2-1.4-3.5-1.4
				C436.7,437.5,436.6,437.5,436.5,437.5L436.5,437.5z"/>
		</g>
	</g>
</g>
</svg>
